<svg width="20" height="16" viewBox="0 0 20 16" fill="none" xmlns="http://www.w3.org/2000/svg">
<path fill-rule="evenodd" clip-rule="evenodd" d="M6.54677 0H13.8849C17.2617 0 20.0001 2.239 20.0001 5V11C20.0001 13.761 17.2617 16 13.8849 16H6.54677C3.17 16 0.431641 13.761 0.431641 11V5C0.431641 2.239 3.17 0 6.54677 0ZM13.885 14.5C16.2454 14.5 18.1656 12.93 18.1656 11V5C18.1656 3.07 16.2454 1.5 13.885 1.5H6.54683C4.18639 1.5 2.26624 3.07 2.26624 5V11C2.26624 12.93 4.18639 14.5 6.54683 14.5H13.885Z" fill="#16B7C1"/>
<path fill-rule="evenodd" clip-rule="evenodd" d="M5.32422 8C5.32422 5.791 7.51466 4 10.2163 4C12.918 4 15.1084 5.791 15.1084 8C15.1084 10.209 12.918 12 10.2163 12C7.51466 12 5.32422 10.209 5.32422 8ZM7.15871 8C7.15871 9.378 8.53095 10.5 10.2163 10.5C11.9016 10.5 13.2738 9.378 13.2738 8C13.2738 6.621 11.9016 5.5 10.2163 5.5C8.53095 5.5 7.15871 6.621 7.15871 8Z" fill="#16B7C1"/>
<ellipse cx="15.4741" cy="3.70097" rx="0.651873" ry="0.533" fill="#16B7C1"/>
</svg>
