<svg width="155" height="24" viewBox="0 0 155 24" fill="none" xmlns="http://www.w3.org/2000/svg">
<path d="M12.535 0.171875L16.7448 7.22871L24.9196 8.95709L19.3465 15.0468L20.1891 23.1719L12.535 19.8787L4.88089 23.1719L5.72347 15.0468L0.150391 8.95709L8.32524 7.22871L12.535 0.171875Z" fill="#DFB300"/>
<path d="M44.3807 0.171875L48.5905 7.22871L56.7653 8.95709L51.1922 15.0468L52.0348 23.1719L44.3807 19.8787L36.7266 23.1719L37.5692 15.0468L31.9961 8.95709L40.1709 7.22871L44.3807 0.171875Z" fill="#DFB300"/>
<path d="M77.1113 0.171875L81.0204 7.22871L88.6113 8.95709L83.4363 15.0468L84.2187 23.1719L77.1113 19.8787L70.0039 23.1719L70.7863 15.0468L65.6113 8.95709L73.2023 7.22871L77.1113 0.171875Z" fill="#DFB300"/>
<path d="M109.844 0.171875L114.053 7.22871L122.228 8.95709L116.655 15.0468L117.498 23.1719L109.844 19.8787L102.189 23.1719L103.032 15.0468L97.459 8.95709L105.634 7.22871L109.844 0.171875Z" fill="#DFB300"/>
<path d="M141.689 0.171875L145.899 7.22871L154.074 8.95709L148.501 15.0468L149.343 23.1719L141.689 19.8787L134.035 23.1719L134.878 15.0468L129.305 8.95709L137.48 7.22871L141.689 0.171875Z" fill="#DFB300"/>
</svg>
