<svg width="154" height="24" viewBox="0 0 154 24" fill="none" xmlns="http://www.w3.org/2000/svg">
<path d="M12.4237 0.171875L16.6334 7.22871L24.8083 8.95709L19.2352 15.0468L20.0778 23.1719L12.4237 19.8787L4.76956 23.1719L5.61214 15.0468L0.0390625 8.95709L8.21392 7.22871L12.4237 0.171875Z" fill="#DFB300"/>
<path d="M44.2694 0.171875L48.4791 7.22871L56.654 8.95709L51.0809 15.0468L51.9235 23.1719L44.2694 19.8787L36.6153 23.1719L37.4578 15.0468L31.8848 8.95709L40.0596 7.22871L44.2694 0.171875Z" fill="#DFB300"/>
<path d="M77 0.171875L80.9091 7.22871L88.5 8.95709L83.325 15.0468L84.1074 23.1719L77 19.8787L69.8926 23.1719L70.675 15.0468L65.5 8.95709L73.0909 7.22871L77 0.171875Z" fill="#DFB300"/>
<path d="M109.732 0.171875L113.942 7.22871L122.117 8.95709L116.544 15.0468L117.386 23.1719L109.732 19.8787L102.078 23.1719L102.921 15.0468L97.3477 8.95709L105.523 7.22871L109.732 0.171875Z" fill="#DFB300"/>
<path d="M141.578 0.171875L145.788 7.22871L153.963 8.95709L148.39 15.0468L149.232 23.1719L141.578 19.8787L133.924 23.1719L134.766 15.0468L129.193 8.95709L137.368 7.22871L141.578 0.171875Z" fill="#DFB300"/>
</svg>
