<svg width="25" height="16" viewBox="0 0 25 16" fill="none" xmlns="http://www.w3.org/2000/svg">
<path d="M24.6142 1.881C23.7248 2.2 22.7771 2.41144 21.789 2.51411C22.8055 2.01789 23.5813 1.23811 23.946 0.298222C22.9983 0.760222 21.952 1.08656 20.8368 1.26867C19.937 0.485222 18.6544 0 17.2553 0C14.5407 0 12.3553 1.80156 12.3553 4.01011C12.3553 4.32789 12.3882 4.63344 12.4689 4.92433C8.39255 4.76178 4.78557 3.16433 2.36248 0.730889C1.93945 1.331 1.69131 2.01789 1.69131 2.75733C1.69131 4.14578 2.56578 5.37656 3.86925 6.08911C3.08149 6.07689 2.30867 5.88989 1.65394 5.59533C1.65394 5.60756 1.65394 5.62344 1.65394 5.63933C1.65394 7.58756 3.35354 9.20578 5.5823 9.57856C5.18319 9.66778 4.7482 9.71056 4.29677 9.71056C3.98286 9.71056 3.66596 9.69589 3.36849 9.64211C4.00379 11.2298 5.80653 12.397 7.95008 12.4349C6.28188 13.5019 4.16373 14.1448 1.87069 14.1448C1.46859 14.1448 1.08293 14.1301 0.697266 14.0898C2.86922 15.235 5.44329 15.8889 8.21915 15.8889C17.2418 15.8889 22.1747 9.77778 22.1747 4.48067C22.1747 4.30344 22.1672 4.13233 22.1568 3.96244C23.1299 3.39778 23.9475 2.69256 24.6142 1.881Z" fill="#16B7C1"/>
</svg>
